<svg id="visual" viewBox="0 0 900 600" width="900" height="600" xmlns="http://www.w3.org/2000/svg" xmlns:xlink="http://www.w3.org/1999/xlink" version="1.1"><rect x="0" y="0" width="900" height="600" fill="#000000"></rect><path d="M0 451L15 454.8C30 458.7 60 466.3 90 460.2C120 454 150 434 180 425.2C210 416.3 240 418.7 270 419.5C300 420.3 330 419.7 360 426.2C390 432.7 420 446.3 450 445.8C480 445.3 510 430.7 540 432.5C570 434.3 600 452.7 630 452.5C660 452.3 690 433.7 720 430.7C750 427.7 780 440.3 810 446.8C840 453.3 870 453.7 885 453.8L900 454L900 601L885 601C870 601 840 601 810 601C780 601 750 601 720 601C690 601 660 601 630 601C600 601 570 601 540 601C510 601 480 601 450 601C420 601 390 601 360 601C330 601 300 601 270 601C240 601 210 601 180 601C150 601 120 601 90 601C60 601 30 601 15 601L0 601Z" fill="#0066FF" stroke-linecap="round" stroke-linejoin="miter"></path></svg>