<svg id="visual" viewBox="0 0 900 600" width="900" height="600" xmlns="http://www.w3.org/2000/svg" xmlns:xlink="http://www.w3.org/1999/xlink" version="1.1"><rect x="0" y="0" width="900" height="600" fill="#000000"></rect><path d="M0 441L15 432.8C30 424.7 60 408.3 90 408.7C120 409 150 426 180 431.8C210 437.7 240 432.3 270 428.8C300 425.3 330 423.7 360 434.5C390 445.3 420 468.7 450 468.3C480 468 510 444 540 427.7C570 411.3 600 402.7 630 411.5C660 420.3 690 446.7 720 457.3C750 468 780 463 810 464.3C840 465.7 870 473.3 885 477.2L900 481L900 601L885 601C870 601 840 601 810 601C780 601 750 601 720 601C690 601 660 601 630 601C600 601 570 601 540 601C510 601 480 601 450 601C420 601 390 601 360 601C330 601 300 601 270 601C240 601 210 601 180 601C150 601 120 601 90 601C60 601 30 601 15 601L0 601Z" fill="#0046ff" stroke-linecap="round" stroke-linejoin="miter"></path></svg>